<?xml version="1.0" encoding="utf-8"?>
<svg version="1.1" xmlns:xlink="http://www.w3.org/1999/xlink" width="168px" height="95px" xmlns="http://www.w3.org/2000/svg">
  <g transform="matrix(1 0 0 1 -2123 -406 )">
    <path d="M 2123 406  L 2291 406  L 2291 501  L 2123 501  L 2123 406  " fill-rule="nonzero" fill="#cccccc" stroke="none" />
    <path d="M 2130 413  L 2284 413  L 2284 494  L 2130 494  L 2130 413  " fill-rule="nonzero" fill="#ffffff" stroke="none" />
    <path d="M 2217.485 434.5  C 2213.495 434.5  2210.36 431.365  2210.36 427.375  C 2210.36 423.385  2213.495 420.25  2217.485 420.25  C 2221.475 420.25  2224.61 423.385  2224.61 427.375  C 2224.61 431.365  2221.475 434.5  2217.485 434.5  " fill-rule="nonzero" fill="#cccccc" stroke="none" />
    <path d="M 2133 492  L 2133 450.2  L 2170.25 431.2  L 2222.4 466.214285714286  L 2252.2 442.6  L 2282 466.214285714286  L 2282 492  L 2133 492  " fill-rule="nonzero" fill="#169bd5" stroke="none" />
  </g>
</svg>